<svg width="160" height="160" viewBox="0 0 160 160" fill="none" xmlns="http://www.w3.org/2000/svg">
<path d="M57.8667 84.8001H69.4667V111.8C69.4667 115.8 74.4 117.667 77.0667 114.667L105.467 82.4001C106.019 81.7736 106.379 81.0007 106.503 80.1744C106.626 79.3482 106.508 78.5038 106.163 77.743C105.818 76.9822 105.26 76.3374 104.557 75.8862C103.854 75.4351 103.035 75.1968 102.2 75.2001H90.6V48.2001C90.6 44.2001 85.6667 42.3334 83 45.3334L54.6 77.6001C54.0473 78.2266 53.6875 78.9995 53.5639 79.8258C53.4403 80.652 53.5582 81.4964 53.9034 82.2572C54.2486 83.018 54.8063 83.6628 55.5095 84.114C56.2126 84.5651 57.0312 84.8034 57.8667 84.8001Z" stroke="#FBBA00" stroke-width="1.5" stroke-miterlimit="10" stroke-linecap="round" stroke-linejoin="round"/>
<path d="M79.8 146.667C116.62 146.667 146.467 116.82 146.467 79.9999C146.467 43.1799 116.62 13.3333 79.8 13.3333C42.98 13.3333 13.1333 43.1799 13.1333 79.9999C13.1333 116.82 42.98 146.667 79.8 146.667Z" stroke="#FBBA00" stroke-width="1.5" stroke-miterlimit="10" stroke-linecap="round" stroke-linejoin="round"/>
</svg>
